<?xml version="1.0" encoding="utf-8"?>
<!-- Generator: Adobe Illustrator 24.0.1, SVG Export Plug-In . SVG Version: 6.00 Build 0)  -->
<svg version="1.1" id="Layer_1" xmlns="http://www.w3.org/2000/svg" xmlns:xlink="http://www.w3.org/1999/xlink" x="0px" y="0px"
	 viewBox="0 0 22.4 25" style="enable-background:new 0 0 22.4 25;" xml:space="preserve">
<style type="text/css">
	.st0{fill-rule:evenodd;clip-rule:evenodd;fill:#FFFFFF;}
</style>
<path class="st0" d="M7.4,25C7.8,24.9,8,24.6,8,24.2c0-0.4,0-1.4,0-2.8c-4.5,1-5.5-2.2-5.5-2.2c-0.3-1-1-1.8-1.9-2.4
	c-1.5-1,0.1-1,0.1-1c1,0.1,2,0.8,2.5,1.7c0.9,1.7,3,2.4,4.7,1.5C8,19,8,19,8,19c0.1-0.8,0.4-1.6,1-2.2c-3.6-0.4-7.4-1.8-7.4-8
	c0-1.7,0.6-3.3,1.7-4.5C2.8,2.9,2.8,1.4,3.4,0c0,0,1.4-0.4,4.5,1.7c2.7-0.7,5.5-0.7,8.1,0C19.2-0.4,20.5,0,20.5,0
	c0.6,1.4,0.7,2.9,0.2,4.3c1.1,1.2,1.7,2.8,1.7,4.4c0,6.3-3.8,7.6-7.4,8c0.8,0.8,1.2,1.9,1.1,3c0,2.2,0,3.9,0,4.5
	c0,0.3,0.2,0.6,0.5,0.8"/>
</svg>
